<mxfile host="Electron" modified="2023-04-04T21:28:43.265Z" agent="Mozilla/5.0 (Windows NT 10.0; Win64; x64) AppleWebKit/537.36 (KHTML, like Gecko) draw.io/21.1.2 Chrome/106.0.5249.199 Electron/21.4.3 Safari/537.36" etag="zYWhDYWbuH2BoSXUCqj6" version="21.1.2" type="device">
  <diagram id="JnklMmTmkcNl3RKXoGes" name="Page-1">
    <mxGraphModel dx="2022" dy="1866" grid="1" gridSize="10" guides="1" tooltips="1" connect="1" arrows="1" fold="1" page="1" pageScale="1" pageWidth="827" pageHeight="1169" math="0" shadow="0">
      <root>
        <mxCell id="0" />
        <mxCell id="1" parent="0" />
        <mxCell id="1CIrNEEOrFaIVTaoIQPS-1" value="" style="aspect=fixed;html=1;points=[];align=center;image;fontSize=12;image=img/lib/azure2/analytics/Stream_Analytics_Jobs.svg;" parent="1" vertex="1">
          <mxGeometry x="461" y="399.70000000000005" width="68" height="57.99999999999999" as="geometry" />
        </mxCell>
        <mxCell id="1CIrNEEOrFaIVTaoIQPS-3" value="" style="endArrow=classic;html=1;rounded=0;entryX=0.5;entryY=0;entryDx=0;entryDy=0;exitX=0.8;exitY=0.8;exitDx=0;exitDy=0;exitPerimeter=0;" parent="1" source="1CIrNEEOrFaIVTaoIQPS-28" target="1CIrNEEOrFaIVTaoIQPS-5" edge="1">
          <mxGeometry width="50" height="50" relative="1" as="geometry">
            <mxPoint x="375" y="330" as="sourcePoint" />
            <mxPoint x="440" y="440" as="targetPoint" />
          </mxGeometry>
        </mxCell>
        <mxCell id="1CIrNEEOrFaIVTaoIQPS-5" value="co-sensors-stream-analytics-job" style="html=1;dashed=0;whitespace=wrap;shape=partialRectangle;right=0;left=0;" parent="1" vertex="1">
          <mxGeometry x="410" y="361.70000000000005" width="170" height="26" as="geometry" />
        </mxCell>
        <mxCell id="1CIrNEEOrFaIVTaoIQPS-10" value="co-sensors" style="html=1;dashed=0;whitespace=wrap;shape=partialRectangle;right=0;" parent="1" vertex="1">
          <mxGeometry x="191.5" y="256" width="100" height="30" as="geometry" />
        </mxCell>
        <mxCell id="1CIrNEEOrFaIVTaoIQPS-9" value="" style="endArrow=classic;html=1;rounded=0;entryX=0;entryY=0;entryDx=0;entryDy=0;exitX=0.5;exitY=0.5;exitDx=0;exitDy=15;exitPerimeter=0;" parent="1" source="1CIrNEEOrFaIVTaoIQPS-14" target="1CIrNEEOrFaIVTaoIQPS-10" edge="1">
          <mxGeometry width="50" height="50" relative="1" as="geometry">
            <mxPoint x="380" y="150" as="sourcePoint" />
            <mxPoint x="424" y="141" as="targetPoint" />
          </mxGeometry>
        </mxCell>
        <mxCell id="1CIrNEEOrFaIVTaoIQPS-14" value="IoT device" style="html=1;dashed=0;whitespace=wrap;shape=mxgraph.dfd.start" parent="1" vertex="1">
          <mxGeometry x="177" y="120.5" width="80" height="30" as="geometry" />
        </mxCell>
        <mxCell id="1CIrNEEOrFaIVTaoIQPS-15" value="" style="aspect=fixed;perimeter=ellipsePerimeter;html=1;align=center;shadow=0;dashed=0;fontColor=#4277BB;labelBackgroundColor=#ffffff;fontSize=12;spacingTop=3;image;image=img/lib/ibm/users/sensor.svg;" parent="1" vertex="1">
          <mxGeometry x="348.5" y="49" width="30" height="30" as="geometry" />
        </mxCell>
        <mxCell id="1CIrNEEOrFaIVTaoIQPS-16" value="" style="sketch=0;outlineConnect=0;fontColor=#232F3E;gradientColor=none;fillColor=#3F8624;strokeColor=none;dashed=0;verticalLabelPosition=bottom;verticalAlign=top;align=center;html=1;fontSize=12;fontStyle=0;aspect=fixed;pointerEvents=1;shape=mxgraph.aws4.iot_thing_temperature_humidity_sensor;" parent="1" vertex="1">
          <mxGeometry x="199" y="45" width="38" height="38" as="geometry" />
        </mxCell>
        <mxCell id="1CIrNEEOrFaIVTaoIQPS-18" value="" style="endArrow=classic;html=1;rounded=0;" parent="1" target="1CIrNEEOrFaIVTaoIQPS-42" edge="1">
          <mxGeometry width="50" height="50" relative="1" as="geometry">
            <mxPoint x="340" y="80" as="sourcePoint" />
            <mxPoint x="333.5" y="141.5" as="targetPoint" />
          </mxGeometry>
        </mxCell>
        <mxCell id="1CIrNEEOrFaIVTaoIQPS-19" value="" style="endArrow=classic;html=1;rounded=0;" parent="1" source="1CIrNEEOrFaIVTaoIQPS-16" target="1CIrNEEOrFaIVTaoIQPS-42" edge="1">
          <mxGeometry width="50" height="50" relative="1" as="geometry">
            <mxPoint x="423.5" y="181.5" as="sourcePoint" />
            <mxPoint x="323.5" y="91.5" as="targetPoint" />
          </mxGeometry>
        </mxCell>
        <mxCell id="1CIrNEEOrFaIVTaoIQPS-21" value="Temperature/Humidity sensor" style="text;html=1;align=center;verticalAlign=middle;resizable=0;points=[];autosize=1;strokeColor=none;fillColor=none;" parent="1" vertex="1">
          <mxGeometry x="30" y="54" width="170" height="20" as="geometry" />
        </mxCell>
        <mxCell id="1CIrNEEOrFaIVTaoIQPS-22" value="CO sensor" style="text;html=1;align=center;verticalAlign=middle;resizable=0;points=[];autosize=1;strokeColor=none;fillColor=none;" parent="1" vertex="1">
          <mxGeometry x="278.5" y="54" width="70" height="20" as="geometry" />
        </mxCell>
        <mxCell id="1CIrNEEOrFaIVTaoIQPS-25" value="" style="aspect=fixed;html=1;points=[];align=center;image;fontSize=12;image=img/lib/azure2/analytics/Event_Hubs.svg;direction=west;" parent="1" vertex="1">
          <mxGeometry x="420" y="246.95999999999992" width="47" height="42.09" as="geometry" />
        </mxCell>
        <mxCell id="1CIrNEEOrFaIVTaoIQPS-26" value="" style="verticalLabelPosition=bottom;html=1;verticalAlign=top;align=center;strokeColor=none;fillColor=#00BEF2;shape=mxgraph.azure.service_endpoint;" parent="1" vertex="1">
          <mxGeometry x="119" y="215.89999999999998" width="38" height="17" as="geometry" />
        </mxCell>
        <mxCell id="1CIrNEEOrFaIVTaoIQPS-28" value="Event hub compatible endpoint" style="shape=cloud;whiteSpace=wrap;html=1;" parent="1" vertex="1">
          <mxGeometry x="309.5" y="226.55" width="100" height="82.9" as="geometry" />
        </mxCell>
        <object placeholders="1" c4Name="" c4Type="" c4Application="IoT Hub" label="&lt;font style=&quot;font-size: 16px&quot;&gt;&lt;b&gt;&lt;div style=&quot;text-align: left&quot;&gt;%c4Name%&lt;/div&gt;&lt;/b&gt;&lt;/font&gt;&lt;div style=&quot;text-align: left&quot;&gt;[%c4Application%]&lt;/div&gt;" id="1CIrNEEOrFaIVTaoIQPS-30">
          <mxCell style="rounded=1;fontSize=11;whiteSpace=wrap;html=1;dashed=1;arcSize=20;fillColor=none;strokeColor=#666666;fontColor=#333333;labelBackgroundColor=none;align=left;verticalAlign=bottom;labelBorderColor=none;spacingTop=0;spacing=10;dashPattern=8 4;metaEdit=1;rotatable=0;perimeter=rectanglePerimeter;noLabel=0;labelPadding=0;allowArrows=0;connectable=0;expand=0;recursiveResize=0;editable=1;pointerEvents=0;absoluteArcSize=1;points=[[0.25,0,0],[0.5,0,0],[0.75,0,0],[1,0.25,0],[1,0.5,0],[1,0.75,0],[0.75,1,0],[0.5,1,0],[0.25,1,0],[0,0.75,0],[0,0.5,0],[0,0.25,0]];" parent="1" vertex="1">
            <mxGeometry x="104.5" y="213" width="400" height="110" as="geometry" />
          </mxCell>
        </object>
        <mxCell id="1CIrNEEOrFaIVTaoIQPS-32" value="" style="endArrow=none;dashed=1;html=1;rounded=0;" parent="1" edge="1">
          <mxGeometry width="50" height="50" relative="1" as="geometry">
            <mxPoint x="3" y="200" as="sourcePoint" />
            <mxPoint x="827" y="200" as="targetPoint" />
          </mxGeometry>
        </mxCell>
        <mxCell id="1CIrNEEOrFaIVTaoIQPS-38" value="" style="html=1;verticalLabelPosition=bottom;align=center;labelBackgroundColor=#ffffff;verticalAlign=top;strokeWidth=2;strokeColor=#0080F0;shadow=0;dashed=0;shape=mxgraph.ios7.icons.cloud;" parent="1" vertex="1">
          <mxGeometry x="8.5" y="209" width="70" height="47" as="geometry" />
        </mxCell>
        <mxCell id="1CIrNEEOrFaIVTaoIQPS-39" value="Azure" style="text;html=1;align=center;verticalAlign=middle;resizable=0;points=[];autosize=1;strokeColor=none;fillColor=none;" parent="1" vertex="1">
          <mxGeometry x="18.5" y="229" width="50" height="20" as="geometry" />
        </mxCell>
        <mxCell id="1CIrNEEOrFaIVTaoIQPS-40" value="" style="endArrow=classic;html=1;rounded=0;entryX=0.733;entryY=0.05;entryDx=0;entryDy=0;exitX=0.13;exitY=0.77;exitDx=0;exitDy=0;exitPerimeter=0;entryPerimeter=0;" parent="1" source="1CIrNEEOrFaIVTaoIQPS-28" target="1CIrNEEOrFaIVTaoIQPS-47" edge="1">
          <mxGeometry width="50" height="50" relative="1" as="geometry">
            <mxPoint x="210" y="420" as="sourcePoint" />
            <mxPoint x="220" y="350" as="targetPoint" />
          </mxGeometry>
        </mxCell>
        <mxCell id="1CIrNEEOrFaIVTaoIQPS-42" value="" style="outlineConnect=0;dashed=0;verticalLabelPosition=bottom;verticalAlign=top;align=center;html=1;shape=mxgraph.aws3.hardware_board;fillColor=#5294CF;gradientColor=none;" parent="1" vertex="1">
          <mxGeometry x="260" y="102.5" width="57" height="68" as="geometry" />
        </mxCell>
        <mxCell id="1CIrNEEOrFaIVTaoIQPS-43" value="" style="aspect=fixed;html=1;points=[];align=center;image;fontSize=12;image=img/lib/azure2/preview/IoT_Edge.svg;" parent="1" vertex="1">
          <mxGeometry x="19.5" y="116.87" width="59" height="58.13" as="geometry" />
        </mxCell>
        <mxCell id="1CIrNEEOrFaIVTaoIQPS-44" value="IoT Edge" style="text;html=1;align=center;verticalAlign=middle;resizable=0;points=[];autosize=1;strokeColor=none;fillColor=none;" parent="1" vertex="1">
          <mxGeometry x="18.5" y="175" width="60" height="20" as="geometry" />
        </mxCell>
        <mxCell id="1CIrNEEOrFaIVTaoIQPS-47" value="" style="shape=ellipse;html=1;dashed=0;whitespace=wrap;aspect=fixed;perimeter=ellipsePerimeter;" parent="1" vertex="1">
          <mxGeometry x="196.5" y="364.70000000000005" width="60" height="60" as="geometry" />
        </mxCell>
        <mxCell id="1CIrNEEOrFaIVTaoIQPS-45" value="" style="aspect=fixed;html=1;points=[];align=center;image;fontSize=12;image=img/lib/azure2/compute/Function_Apps.svg;" parent="1" vertex="1">
          <mxGeometry x="201" y="372.20000000000005" width="51" height="45" as="geometry" />
        </mxCell>
        <mxCell id="1CIrNEEOrFaIVTaoIQPS-51" value="co-sensors-function-app" style="text;html=1;align=center;verticalAlign=middle;resizable=0;points=[];autosize=1;strokeColor=none;fillColor=none;fontSize=14;" parent="1" vertex="1">
          <mxGeometry x="26.5" y="384.70000000000005" width="170" height="20" as="geometry" />
        </mxCell>
        <mxCell id="1CIrNEEOrFaIVTaoIQPS-52" value="" style="aspect=fixed;html=1;points=[];align=center;image;fontSize=12;image=img/lib/azure2/management_governance/Application_Insights.svg;" parent="1" vertex="1">
          <mxGeometry x="143.5" y="345" width="19" height="27.2" as="geometry" />
        </mxCell>
        <mxCell id="1CIrNEEOrFaIVTaoIQPS-53" value="Application Insights" style="text;html=1;align=center;verticalAlign=middle;resizable=0;points=[];autosize=1;strokeColor=none;fillColor=none;fontSize=11;" parent="1" vertex="1">
          <mxGeometry x="33.5" y="349.70000000000005" width="110" height="20" as="geometry" />
        </mxCell>
        <mxCell id="0PX_ICfzAboF8WxrlLhr-1" value="Storage account" style="shape=cylinder;whiteSpace=wrap;html=1;boundedLbl=1;backgroundOutline=1;" parent="1" vertex="1">
          <mxGeometry x="39.5" y="552.8" width="70" height="70" as="geometry" />
        </mxCell>
        <mxCell id="0PX_ICfzAboF8WxrlLhr-2" value="" style="aspect=fixed;html=1;points=[];align=center;image;fontSize=12;image=img/lib/azure2/storage/Storage_Accounts.svg;" parent="1" vertex="1">
          <mxGeometry x="54" y="538.4" width="43" height="34.4" as="geometry" />
        </mxCell>
        <mxCell id="0PX_ICfzAboF8WxrlLhr-3" value="" style="endArrow=classic;html=1;rounded=0;entryX=1.025;entryY=0.167;entryDx=0;entryDy=0;entryPerimeter=0;" parent="1" source="1CIrNEEOrFaIVTaoIQPS-45" target="0PX_ICfzAboF8WxrlLhr-1" edge="1">
          <mxGeometry width="50" height="50" relative="1" as="geometry">
            <mxPoint x="260" y="520" as="sourcePoint" />
            <mxPoint x="330" y="570" as="targetPoint" />
          </mxGeometry>
        </mxCell>
        <object placeholders="1" c4Name="" c4Application="Persistent data storage" label="&lt;font style=&quot;font-size: 16px&quot;&gt;&lt;b&gt;&lt;div style=&quot;text-align: left&quot;&gt;%c4Name%&lt;/div&gt;&lt;/b&gt;&lt;/font&gt;&lt;div style=&quot;text-align: left&quot;&gt;[%c4Application%]&lt;/div&gt;" id="0PX_ICfzAboF8WxrlLhr-8">
          <mxCell style="rounded=1;fontSize=11;whiteSpace=wrap;html=1;dashed=1;arcSize=20;fillColor=none;strokeColor=#666666;fontColor=#333333;labelBackgroundColor=none;align=left;verticalAlign=bottom;labelBorderColor=none;spacingTop=0;spacing=10;dashPattern=8 4;metaEdit=1;rotatable=0;perimeter=rectanglePerimeter;noLabel=0;labelPadding=0;allowArrows=0;connectable=0;expand=0;recursiveResize=0;editable=1;pointerEvents=0;absoluteArcSize=1;points=[[0.25,0,0],[0.5,0,0],[0.75,0,0],[1,0.25,0],[1,0.5,0],[1,0.75,0],[0.75,1,0],[0.5,1,0],[0.25,1,0],[0,0.75,0],[0,0.5,0],[0,0.25,0]];" parent="1" vertex="1">
            <mxGeometry x="19.5" y="530" width="140.5" height="135" as="geometry" />
          </mxCell>
        </object>
        <mxCell id="0PX_ICfzAboF8WxrlLhr-9" value="Format and&lt;br&gt;&amp;nbsp;store" style="text;html=1;align=center;verticalAlign=middle;resizable=0;points=[];autosize=1;strokeColor=none;fillColor=none;" parent="1" vertex="1">
          <mxGeometry x="75.25" y="460.2500000000001" width="80" height="30" as="geometry" />
        </mxCell>
        <mxCell id="0PX_ICfzAboF8WxrlLhr-10" value="Provide data" style="text;html=1;align=center;verticalAlign=middle;resizable=0;points=[];autosize=1;strokeColor=none;fillColor=none;" parent="1" vertex="1">
          <mxGeometry x="116" y="170.5" width="80" height="20" as="geometry" />
        </mxCell>
        <mxCell id="0PX_ICfzAboF8WxrlLhr-12" value="Consume data" style="text;html=1;align=center;verticalAlign=middle;resizable=0;points=[];autosize=1;strokeColor=none;fillColor=none;" parent="1" vertex="1">
          <mxGeometry x="309.5" y="315" width="100" height="30" as="geometry" />
        </mxCell>
        <mxCell id="0PX_ICfzAboF8WxrlLhr-14" value="" style="endArrow=classic;html=1;rounded=0;exitX=1;exitY=1;exitDx=0;exitDy=0;entryX=0.5;entryY=0;entryDx=0;entryDy=0;entryPerimeter=0;" parent="1" source="1CIrNEEOrFaIVTaoIQPS-5" target="0PX_ICfzAboF8WxrlLhr-15" edge="1">
          <mxGeometry width="50" height="50" relative="1" as="geometry">
            <mxPoint x="728.5" y="489.4" as="sourcePoint" />
            <mxPoint x="778.5" y="439.4" as="targetPoint" />
          </mxGeometry>
        </mxCell>
        <mxCell id="0PX_ICfzAboF8WxrlLhr-15" value="" style="html=1;dashed=0;whitespace=wrap;shape=mxgraph.dfd.archive" parent="1" vertex="1">
          <mxGeometry x="557.5" y="429.74999999999994" width="105" height="43.4" as="geometry" />
        </mxCell>
        <mxCell id="0PX_ICfzAboF8WxrlLhr-16" value="" style="shape=image;aspect=fixed;image=data:image/svg+xml,PHN2ZyB4bWxucz0iaHR0cDovL3d3dy53My5vcmcvMjAwMC9zdmciICB2aWV3Qm94PSIwIDAgNDggNDgiIHdpZHRoPSI0ODBweCIgaGVpZ2h0PSI0ODBweCI+PHBhdGggZmlsbD0iI2ZmYzEwNyIgZD0iTTQwLDQxSDhjLTIuMjA2LDAtNC0xLjc5NC00LTRWMTFjMC0yLjIwNiwxLjc5NC00LDQtNGgzMmMyLjIwNiwwLDQsMS43OTQsNCw0djI2CUM0NCwzOS4yMDYsNDIuMjA2LDQxLDQwLDQxeiIvPjxwYXRoIGZpbGw9IiMyMTIxMjEiIGQ9Ik0zNCwxMi45OEgxNC4wMmMtMi4yLDAtNCwxLjc5LTQsNFYzMGMwLDEuODYsMS4yNywzLjQyLDIuOTgsMy44NnYtMi4xNAljLTAuNTktMC4zNS0wLjk4LTAuOTktMC45OC0xLjcyVjE2Ljk4YzAtMS4xLDAuOS0yLDItMkgzNGMxLjEsMCwyLDAuOSwyLDJWMzBjMCwwLjc0LTAuNCwxLjM4LTEsMS43M3YyLjE0YzEuNzMtMC40NCwzLTIuMDEsMy0zLjg3CVYxNi45OEMzOCwxNC43NywzNi4yMSwxMi45OCwzNCwxMi45OHoiLz48cGF0aCBmaWxsPSIjMjEyMTIxIiBkPSJNMTYuNSwyOEwxNi41LDI4YzAuODI4LDAsMS41LDAuNjcyLDEuNSwxLjV2NWMwLDAuODI4LTAuNjcyLDEuNS0xLjUsMS41bDAsMAljLTAuODI4LDAtMS41LTAuNjcyLTEuNS0xLjV2LTVDMTUsMjguNjcyLDE1LjY3MiwyOCwxNi41LDI4eiIvPjxwYXRoIGZpbGw9IiMyMTIxMjEiIGQ9Ik0yMS41LDIyTDIxLjUsMjJjMC44MjgsMCwxLjUsMC42NzIsMS41LDEuNXYxMWMwLDAuODI4LTAuNjcyLDEuNS0xLjUsMS41bDAsMAljLTAuODI4LDAtMS41LTAuNjcyLTEuNS0xLjV2LTExQzIwLDIyLjY3MiwyMC42NzIsMjIsMjEuNSwyMnoiLz48cGF0aCBmaWxsPSIjMjEyMTIxIiBkPSJNMjYuNSwyNUwyNi41LDI1YzAuODI4LDAsMS41LDAuNjcyLDEuNSwxLjV2OGMwLDAuODI4LTAuNjcyLDEuNS0xLjUsMS41bDAsMAljLTAuODI4LDAtMS41LTAuNjcyLTEuNS0xLjV2LThDMjUsMjUuNjcyLDI1LjY3MiwyNSwyNi41LDI1eiIvPjxwYXRoIGZpbGw9IiMyMTIxMjEiIGQ9Ik0zMS41LDE4TDMxLjUsMThjMC44MjgsMCwxLjUsMC42NzIsMS41LDEuNXYxNWMwLDAuODI4LTAuNjcyLDEuNS0xLjUsMS41bDAsMAljLTAuODI4LDAtMS41LTAuNjcyLTEuNS0xLjV2LTE1QzMwLDE4LjY3MiwzMC42NzIsMTgsMzEuNSwxOHoiLz48L3N2Zz4=;" parent="1" vertex="1">
          <mxGeometry x="666.0999999999999" y="432.49999999999994" width="37.9" height="37.9" as="geometry" />
        </mxCell>
        <object placeholders="1" c4Name="" c4Application="Streaming data storage" label="&lt;font style=&quot;font-size: 16px&quot;&gt;&lt;b&gt;&lt;div style=&quot;text-align: left&quot;&gt;%c4Name%&lt;/div&gt;&lt;/b&gt;&lt;/font&gt;&lt;div style=&quot;text-align: left&quot;&gt;[%c4Application%]&lt;/div&gt;" id="0PX_ICfzAboF8WxrlLhr-17">
          <mxCell style="rounded=1;fontSize=11;whiteSpace=wrap;html=1;dashed=1;arcSize=20;fillColor=none;strokeColor=#666666;fontColor=#333333;labelBackgroundColor=none;align=left;verticalAlign=bottom;labelBorderColor=none;spacingTop=0;spacing=10;dashPattern=8 4;metaEdit=1;rotatable=0;perimeter=rectanglePerimeter;noLabel=0;labelPadding=0;allowArrows=0;connectable=0;expand=0;recursiveResize=0;editable=1;pointerEvents=0;absoluteArcSize=1;points=[[0.25,0,0],[0.5,0,0],[0.75,0,0],[1,0.25,0],[1,0.5,0],[1,0.75,0],[0.75,1,0],[0.5,1,0],[0.25,1,0],[0,0.75,0],[0,0.5,0],[0,0.25,0]];" parent="1" vertex="1">
            <mxGeometry x="390" y="340" width="350" height="175" as="geometry" />
          </mxCell>
        </object>
        <mxCell id="0PX_ICfzAboF8WxrlLhr-18" value="PowerBI" style="text;html=1;align=center;verticalAlign=middle;resizable=0;points=[];autosize=1;strokeColor=none;fillColor=none;" parent="1" vertex="1">
          <mxGeometry x="580" y="439.6499999999999" width="60" height="20" as="geometry" />
        </mxCell>
        <object placeholders="1" c4Name="" c4Application="Realtime data visualisation" label="&lt;font style=&quot;font-size: 16px&quot;&gt;&lt;b&gt;&lt;div style=&quot;text-align: left&quot;&gt;%c4Name%&lt;/div&gt;&lt;/b&gt;&lt;/font&gt;&lt;div style=&quot;text-align: left&quot;&gt;[%c4Application%]&lt;/div&gt;" id="CmFKtdmaaKUMa78aj1w1-2">
          <mxCell style="rounded=1;fontSize=11;whiteSpace=wrap;html=1;dashed=1;arcSize=20;fillColor=none;strokeColor=#666666;fontColor=#333333;labelBackgroundColor=none;align=left;verticalAlign=bottom;labelBorderColor=none;spacingTop=0;spacing=10;dashPattern=8 4;metaEdit=1;rotatable=0;perimeter=rectanglePerimeter;noLabel=0;labelPadding=0;allowArrows=0;connectable=0;expand=0;recursiveResize=0;editable=1;pointerEvents=0;absoluteArcSize=1;points=[[0.25,0,0],[0.5,0,0],[0.75,0,0],[1,0.25,0],[1,0.5,0],[1,0.75,0],[0.75,1,0],[0.5,1,0],[0.25,1,0],[0,0.75,0],[0,0.5,0],[0,0.25,0]];" parent="1" vertex="1">
            <mxGeometry x="530" y="395.25" width="200" height="110" as="geometry" />
          </mxCell>
        </object>
        <mxCell id="CmFKtdmaaKUMa78aj1w1-3" value="Request data realtime" style="text;html=1;align=center;verticalAlign=middle;resizable=0;points=[];autosize=1;strokeColor=none;fillColor=none;" parent="1" vertex="1">
          <mxGeometry x="600" y="399.69999999999993" width="130" height="20" as="geometry" />
        </mxCell>
        <mxCell id="XdqIaffLOTirHpR6MW7--1" value="" style="image;sketch=0;aspect=fixed;html=1;points=[];align=center;fontSize=12;image=img/lib/mscae/Docker.svg;" vertex="1" parent="1">
          <mxGeometry x="610" y="127.36000000000001" width="77" height="63.14" as="geometry" />
        </mxCell>
        <mxCell id="XdqIaffLOTirHpR6MW7--5" value="" style="endArrow=none;dashed=1;html=1;dashPattern=1 3;strokeWidth=2;rounded=0;" edge="1" parent="1">
          <mxGeometry width="50" height="50" relative="1" as="geometry">
            <mxPoint x="410" y="200" as="sourcePoint" />
            <mxPoint x="410" as="targetPoint" />
          </mxGeometry>
        </mxCell>
        <mxCell id="XdqIaffLOTirHpR6MW7--6" value="" style="image;sketch=0;aspect=fixed;html=1;points=[];align=center;fontSize=12;image=img/lib/mscae/VM_Scale_Set.svg;" vertex="1" parent="1">
          <mxGeometry x="445.5" y="83" width="59" height="59" as="geometry" />
        </mxCell>
        <mxCell id="XdqIaffLOTirHpR6MW7--7" value="IoT device" style="html=1;dashed=0;whitespace=wrap;shape=mxgraph.dfd.start" vertex="1" parent="1">
          <mxGeometry x="435" y="150.5" width="80" height="30" as="geometry" />
        </mxCell>
        <mxCell id="XdqIaffLOTirHpR6MW7--9" value="" style="endArrow=classic;html=1;rounded=0;exitX=0;exitY=0;exitDx=4.395;exitDy=25.604999999999997;exitPerimeter=0;entryX=1;entryY=0;entryDx=0;entryDy=0;" edge="1" parent="1" source="XdqIaffLOTirHpR6MW7--7" target="1CIrNEEOrFaIVTaoIQPS-10">
          <mxGeometry width="50" height="50" relative="1" as="geometry">
            <mxPoint x="470" y="150" as="sourcePoint" />
            <mxPoint x="450" y="250" as="targetPoint" />
          </mxGeometry>
        </mxCell>
        <mxCell id="XdqIaffLOTirHpR6MW7--12" value="" style="dashed=0;outlineConnect=0;html=1;align=center;labelPosition=center;verticalLabelPosition=bottom;verticalAlign=top;shape=mxgraph.weblogos.json" vertex="1" parent="1">
          <mxGeometry x="585" y="54" width="40" height="43" as="geometry" />
        </mxCell>
        <mxCell id="XdqIaffLOTirHpR6MW7--13" value="" style="endArrow=classic;html=1;rounded=0;entryX=0;entryY=0;entryDx=75.605;entryDy=4.395000000000001;entryPerimeter=0;" edge="1" parent="1" source="XdqIaffLOTirHpR6MW7--12" target="XdqIaffLOTirHpR6MW7--7">
          <mxGeometry width="50" height="50" relative="1" as="geometry">
            <mxPoint x="567" y="79" as="sourcePoint" />
            <mxPoint x="515" y="150" as="targetPoint" />
          </mxGeometry>
        </mxCell>
        <mxCell id="XdqIaffLOTirHpR6MW7--15" value="Configure" style="text;html=1;align=center;verticalAlign=middle;resizable=0;points=[];autosize=1;strokeColor=none;fillColor=none;" vertex="1" parent="1">
          <mxGeometry x="540" y="112" width="80" height="30" as="geometry" />
        </mxCell>
        <mxCell id="XdqIaffLOTirHpR6MW7--17" value="" style="image;sketch=0;aspect=fixed;html=1;points=[];align=center;fontSize=12;image=img/lib/mscae/Azure_IoT_Hub.svg;" vertex="1" parent="1">
          <mxGeometry x="111.5" y="246.96000000000004" width="50" height="50" as="geometry" />
        </mxCell>
        <mxCell id="XdqIaffLOTirHpR6MW7--25" value="Alerts" style="html=1;shadow=0;dashed=0;shape=mxgraph.bootstrap.rrect;rSize=5;strokeColor=none;strokeWidth=1;fillColor=#0085FC;fontColor=#FFFFFF;whiteSpace=wrap;align=left;verticalAlign=middle;spacingLeft=10;fontStyle=0;fontSize=14;" vertex="1" parent="1">
          <mxGeometry x="463.04999999999995" y="645" width="80" height="30.6" as="geometry" />
        </mxCell>
        <mxCell id="XdqIaffLOTirHpR6MW7--26" value="⚠️" style="html=1;shadow=0;dashed=0;shape=mxgraph.bootstrap.rrect;rSize=5;strokeColor=none;strokeWidth=1;fillColor=#ffffff;fontColor=#000000;whiteSpace=wrap;align=center;verticalAlign=middle;fontSize=12;" vertex="1" parent="XdqIaffLOTirHpR6MW7--25">
          <mxGeometry x="1" y="0.5" width="19" height="20.5" relative="1" as="geometry">
            <mxPoint x="-22" y="-10.5" as="offset" />
          </mxGeometry>
        </mxCell>
        <mxCell id="XdqIaffLOTirHpR6MW7--27" value="" style="endArrow=classic;html=1;rounded=0;exitX=1.01;exitY=0.9;exitDx=0;exitDy=0;exitPerimeter=0;entryX=-0.008;entryY=-0.013;entryDx=0;entryDy=0;entryPerimeter=0;" edge="1" parent="1" source="1CIrNEEOrFaIVTaoIQPS-45" target="XdqIaffLOTirHpR6MW7--25">
          <mxGeometry width="50" height="50" relative="1" as="geometry">
            <mxPoint x="244" y="530" as="sourcePoint" />
            <mxPoint x="169" y="611" as="targetPoint" />
          </mxGeometry>
        </mxCell>
        <mxCell id="XdqIaffLOTirHpR6MW7--20" value="" style="outlineConnect=0;dashed=0;verticalLabelPosition=bottom;verticalAlign=top;align=center;html=1;shape=mxgraph.aws3.lambda_function;fillColor=#5294CF;gradientColor=none;" vertex="1" parent="1">
          <mxGeometry x="289.5" y="417.19999999999993" width="40" height="40" as="geometry" />
        </mxCell>
        <mxCell id="XdqIaffLOTirHpR6MW7--28" value="Format and&lt;br&gt;&amp;nbsp;alert" style="text;html=1;align=center;verticalAlign=middle;resizable=0;points=[];autosize=1;strokeColor=none;fillColor=none;" vertex="1" parent="1">
          <mxGeometry x="298.5" y="545" width="80" height="40" as="geometry" />
        </mxCell>
        <object placeholders="1" c4Name="" c4Application="Ntfy.sh" label="&lt;font style=&quot;font-size: 16px&quot;&gt;&lt;b&gt;&lt;div style=&quot;text-align: left&quot;&gt;%c4Name%&lt;/div&gt;&lt;/b&gt;&lt;/font&gt;&lt;div style=&quot;text-align: left&quot;&gt;[%c4Application%]&lt;/div&gt;" id="XdqIaffLOTirHpR6MW7--29">
          <mxCell style="rounded=1;fontSize=11;whiteSpace=wrap;html=1;dashed=1;arcSize=20;fillColor=none;strokeColor=#666666;fontColor=#333333;labelBackgroundColor=none;align=left;verticalAlign=bottom;labelBorderColor=none;spacingTop=0;spacing=10;dashPattern=8 4;metaEdit=1;rotatable=0;perimeter=rectanglePerimeter;noLabel=0;labelPadding=0;allowArrows=0;connectable=0;expand=0;recursiveResize=0;editable=1;pointerEvents=0;absoluteArcSize=1;points=[[0.25,0,0],[0.5,0,0],[0.75,0,0],[1,0.25,0],[1,0.5,0],[1,0.75,0],[0.75,1,0],[0.5,1,0],[0.25,1,0],[0,0.75,0],[0,0.5,0],[0,0.25,0]];" vertex="1" parent="1">
            <mxGeometry x="435" y="615.3" width="165" height="90" as="geometry" />
          </mxCell>
        </object>
        <mxCell id="XdqIaffLOTirHpR6MW7--18" value="" style="outlineConnect=0;dashed=0;verticalLabelPosition=bottom;verticalAlign=top;align=center;html=1;shape=mxgraph.aws3.lambda_function;fillColor=#F58534;gradientColor=none;" vertex="1" parent="1">
          <mxGeometry x="96" y="419.5000000000001" width="38.5" height="40.75" as="geometry" />
        </mxCell>
        <object placeholders="1" c4Name="" c4Application="Function applicatiion" label="&lt;font style=&quot;font-size: 16px&quot;&gt;&lt;b&gt;&lt;div style=&quot;text-align: left&quot;&gt;%c4Name%&lt;/div&gt;&lt;/b&gt;&lt;/font&gt;&lt;div style=&quot;text-align: left&quot;&gt;[%c4Application%]&lt;/div&gt;" id="XdqIaffLOTirHpR6MW7--32">
          <mxCell style="rounded=1;fontSize=11;whiteSpace=wrap;html=1;dashed=1;arcSize=20;fillColor=none;strokeColor=#666666;fontColor=#333333;labelBackgroundColor=none;align=left;verticalAlign=bottom;labelBorderColor=none;spacingTop=0;spacing=10;dashPattern=8 4;metaEdit=1;rotatable=0;perimeter=rectanglePerimeter;noLabel=0;labelPadding=0;allowArrows=0;connectable=0;expand=0;recursiveResize=0;editable=1;pointerEvents=0;absoluteArcSize=1;points=[[0.25,0,0],[0.5,0,0],[0.75,0,0],[1,0.25,0],[1,0.5,0],[1,0.75,0],[0.75,1,0],[0.5,1,0],[0.25,1,0],[0,0.75,0],[0,0.5,0],[0,0.25,0]];" vertex="1" parent="1">
            <mxGeometry x="24.5" y="340" width="320" height="170" as="geometry" />
          </mxCell>
        </object>
        <mxCell id="XdqIaffLOTirHpR6MW7--35" value="" style="endArrow=none;dashed=1;html=1;rounded=0;" edge="1" parent="1">
          <mxGeometry width="50" height="50" relative="1" as="geometry">
            <mxPoint x="-10" y="710" as="sourcePoint" />
            <mxPoint x="420" y="710" as="targetPoint" />
          </mxGeometry>
        </mxCell>
        <mxCell id="XdqIaffLOTirHpR6MW7--36" value="" style="endArrow=none;dashed=1;html=1;dashPattern=1 3;strokeWidth=2;rounded=0;" edge="1" parent="1">
          <mxGeometry width="50" height="50" relative="1" as="geometry">
            <mxPoint x="420" y="710" as="sourcePoint" />
            <mxPoint x="420" y="530" as="targetPoint" />
          </mxGeometry>
        </mxCell>
        <mxCell id="XdqIaffLOTirHpR6MW7--37" value="" style="endArrow=none;dashed=1;html=1;rounded=0;" edge="1" parent="1">
          <mxGeometry width="50" height="50" relative="1" as="geometry">
            <mxPoint x="414" y="530" as="sourcePoint" />
            <mxPoint x="827" y="530" as="targetPoint" />
          </mxGeometry>
        </mxCell>
        <mxCell id="XdqIaffLOTirHpR6MW7--38" value="" style="outlineConnect=0;dashed=0;verticalLabelPosition=bottom;verticalAlign=top;align=center;html=1;shape=mxgraph.aws3.mobile_client;fillColor=#D2D3D3;gradientColor=none;" vertex="1" parent="1">
          <mxGeometry x="428.01" y="538" width="42.13" height="68" as="geometry" />
        </mxCell>
        <mxCell id="XdqIaffLOTirHpR6MW7--42" value="" style="sketch=0;outlineConnect=0;fontColor=#232F3E;gradientColor=none;fillColor=#3F8624;strokeColor=none;dashed=0;verticalLabelPosition=bottom;verticalAlign=top;align=center;html=1;fontSize=12;fontStyle=0;aspect=fixed;pointerEvents=1;shape=mxgraph.aws4.http2_protocol;" vertex="1" parent="1">
          <mxGeometry x="554.5" y="622.8" width="30.5" height="30.5" as="geometry" />
        </mxCell>
        <mxCell id="XdqIaffLOTirHpR6MW7--43" value="" style="dashed=0;outlineConnect=0;html=1;align=center;labelPosition=center;verticalLabelPosition=bottom;verticalAlign=top;shape=mxgraph.weblogos.chrome" vertex="1" parent="1">
          <mxGeometry x="434.91" y="559.2" width="28.14" height="23.6" as="geometry" />
        </mxCell>
        <mxCell id="XdqIaffLOTirHpR6MW7--44" value="" style="fontColor=#0066CC;verticalAlign=top;verticalLabelPosition=bottom;labelPosition=center;align=center;html=1;outlineConnect=0;fillColor=#CCCCCC;strokeColor=#6881B3;gradientColor=none;gradientDirection=north;strokeWidth=2;shape=mxgraph.networks.pc;" vertex="1" parent="1">
          <mxGeometry x="485" y="538" width="100" height="70" as="geometry" />
        </mxCell>
        <mxCell id="XdqIaffLOTirHpR6MW7--45" value="" style="dashed=0;outlineConnect=0;html=1;align=center;labelPosition=center;verticalLabelPosition=bottom;verticalAlign=top;shape=mxgraph.weblogos.chrome" vertex="1" parent="1">
          <mxGeometry x="530" y="552.8000000000001" width="28.14" height="23.6" as="geometry" />
        </mxCell>
      </root>
    </mxGraphModel>
  </diagram>
</mxfile>
